<svg fill="none" height="25" viewBox="0 0 62 25" width="62" xmlns="http://www.w3.org/2000/svg" xmlns:xlink="http://www.w3.org/1999/xlink"><clipPath id="a"><path d="m0 0h62v24.3497h-62z"/></clipPath><g clip-path="url(#a)"><path d="m9.78454 21.2959c-.13147.2195-.28179.4272-.44924.6207-1.89822 2.228-5.30516 2.0618-5.30516 2.0618l1.6827-1.1634c-2.20205.322-4.20414-1.5191-4.20414-1.5191h2.0774c-.40473-.2184-.79741-.4586-1.17633-.7193-.84975-.5879-1.652019-1.2417-2.399394-1.9553 2.440944-.5739 3.578324-.3895 3.578324-.3895l-1.16594-.6778c2.33707-.7972 4.52613.5843 4.52613.5843l-.38691-1.0803c.74441.2821 1.41064.738 1.94319 1.3297.53254.5918.91598 1.3022 1.11837 2.0721.07989.273.13379.553.161.8361z" fill="#fff"/><path d="m9.78454 21.2959c-1.74501 2.8772-5.7544 2.6825-5.7544 2.6825l1.6827-1.1634c-2.20205.322-4.20414-1.5191-4.20414-1.5191h2.0774c-1.29707-.7415-2.498-1.6398-3.575724-2.6746.083096.0286 2.742164.9686 4.889674 1.1192l-.44404.5687c1.65281.6441 3.4774.6973 5.16494.1506.08076.2729.13553.5529.16359.8361z" fill="#e8e8e8"/><path d="m9.33533 21.9166c-1.89822 2.228-5.30516 2.0618-5.30516 2.0618l1.6827-1.1634c-2.20205.322-4.20414-1.5191-4.20414-1.5191h2.0774c-.40474-.2184-.79741-.4586-1.17633-.7193 3.96524 1.1842 6.82945 1.0881 6.82945 1.0881z" fill="#d1d1d1"/><path d="m60.3484 6.02186v.62841s-3.4147-.41808-11.636 0c-6.8061.34537-9.3639 9.62613-10.0416 12.80973-.1403.6622-.2 1.0595-.2 1.0595-5.2584 3.8017-14.0043 3.8276-14.0043 3.8276-10.6622 0-16.44517-2.5785-16.44517-2.5785-.22282-.1623-.3934-.3862-.49079-.644-.18956-.6103.49079-.992.49079-.992 9.96637 1.7087 17.91757-6.8295 17.91757-6.8295 8.0811-10.69077 16.305-12.505903 16.305-12.505903 9.2314-2.318897 14.2821.924443 16.5673 3.243343.5984.58894 1.1154 1.25529 1.5372 1.98132z" fill="#ce0e0f"/><path d="m60.3485 6.02186v.62841s-3.4147-.41807-11.636 0c-8.2214.41808-10.2416 13.86663-10.2416 13.86663-5.2584 3.8017-14.0043 3.8276-14.0043 3.8276-10.6622 0-16.44521-2.5785-16.44521-2.5785-1.18412-.9738 0-1.636 0-1.636s11.38411 5.1442 20.27801-4.2691l-1.8177 2.6591s3.5731-.3973 7.8993-6.8918l.4882-.7322v-1.65936s.8725 3.53416 1.9112 4.29766c0 0 5.5337-13.157773 22.0204-9.49636.6024.58909 1.1229 1.25635 1.5477 1.98392z" fill="#bd010b"/><path d="m38.6708 19.46c-.1402.6622-.1999 1.0595-.1999 1.0595-5.2585 3.8017-14.0043 3.8276-14.0043 3.8276-10.6623 0-16.44524-2.5785-16.44524-2.5785-.22282-.1623-.3934-.3862-.49078-.644.22851.0831 18.85502 6.871 28.34872-4.0666-.5832-1.0753-.7959-2.3128-.605-3.5212z" fill="#8c000e"/><path d="m61.4365 11.34s-.67-1.90341-3.529-2.91355c0 0-6.9307-1.84629-12.6098 4.25085-1.9883 3.15-3.7298 6.449-5.2091 9.8677 0 0-2.2462-.7115-2.1761-2.2462 0 0-1.7424-.9089-.9062-3.8951.1728-.5967.3889-1.1799.6466-1.745 1.5892-3.555 5.6167-9.22111 13.2875-10.50909 0 0 5.7441-.83616 8.481.27785.3153.13095.6039.31839.8518.55311.2982.28099.5174.63547.6354 1.02789.1181.39242.1309.80899.0371 1.20791l.0546.04155c.3142.2389 1.7943 1.5944.4362 4.08208z" fill="#fff"/><path d="m61.4365 11.34s-.67-1.90341-3.529-2.91354c0 0-6.9307-1.84629-12.6098 4.25084-1.9883 3.15-3.7298 6.449-5.2091 9.8677 0 0-2.2462-.7115-2.1761-2.2462 0 0-1.7424-.9089-.9062-3.8951.1728-.5967.3889-1.1799.6466-1.745-.0598.1739-.9141 2.7006.5998 3.5653 0 0 1.3218-3.6926 3.568-5.5596l-.483 3.1991s5.0532-10.62326 16.0167-9.05742c.925.14833 1.8021.51215 2.5604 1.06207l-1.6567-1.97093 1.8826.65698s.0598-.77903.1403-1.58142c.2982.28099.5174.63548.6354 1.0279.1181.39242.1309.80898.0371 1.2079 0 0 1.9943 1.36329.483 4.13142z" fill="#e8e8e8"/><path d="m61.4365 11.34s-.6699-1.90341-3.529-2.91354c0 0-6.9307-1.84629-12.6098 4.25084-1.9883 3.15-3.7298 6.449-5.2091 9.8677 0 0-2.2462-.7115-2.176-2.2462l1.558-2.724-.1298 3.2018s4.1132-7.8422 6.6918-9.608c0 0 7.0242-6.51782 14.5054-2.22279.1205-.12555.2121-.27583.2685-.44038s.0763-.33942.0583-.51244c-.0181-.17302-.0736-.34003-.1628-.4894-.0891-.14937-.2098-.27751-.3535-.37551l.6544.14023c.3116.22851 1.7917 1.58401.4336 4.07169z" fill="#d1d1d1"/></g></svg>