<svg fill="none" height="153" viewBox="0 0 1025 153" width="1025" xmlns="http://www.w3.org/2000/svg" xmlns:xlink="http://www.w3.org/1999/xlink"><clipPath id="a"><path d="m0 0h337v153h-337z" transform="matrix(-1 0 0 1 1025 0)"/></clipPath><clipPath id="b"><path d="m481 13h254v131h-254z"/></clipPath><clipPath id="c"><path d="m0 0h441v99h-441z" transform="matrix(-1 0 0 1 441 12)"/></clipPath><g clip-path="url(#a)"><path d="m688 52.2923c-.094.2452 6.24-9.9398 34.634-8.1293 13.98 1.2523 22.682-11.6199 30.939-24.3147 8.121-12.36083 15.804-24.54427 24.673-14.1453 17.398 20.1509 20.904 7.4614 40.058 6.5587-.177.2139 12.397-18.72126 33.025-9.95545 20.188 9.16755 11.168 25.74435 11.309 25.60875.141-.1357 32.596 5.3534 46.994-7.1849 14.497-13.04435 17.879-16.06543 31.686.8922 13.437 16.1281 33.019 3.8455 53.375 12.6844 20.067 8.4319 30.317 14.9228 30.317 14.8914.13.2088-27.071-12.6321-46.763-3.2976-19.39 9.4807-33.192 2.8228-53.935 4.5082-20.476 2.0088-7.426 6.9291-20.382 2.0871-13.635-4.3151-21.735 47.0901-29.627 4.3829-4.322-22.8799-6.381 3.9342-7.594 27.8158-1.311 24.8525-1.771 46.7775-5.095 36.4665-3.439-10.675-2.645-28.0503-2.781-43.3644-.172-15.0897-1.264-28.1132-9.36-24.7686-15.924 7.4196-7.499 53.268-13.588 18.7839-3.177-18.3352-3.282-10.1329-3.444 2.8071-.151 13.1383-.36 31.014-3.564 36.524-6.109 12.246 2.049 58.961-3.893 35.251-5.937-23.067-6.512-60.5255-20.278-75.4483-13.865-14.0096-9.59-27.8367-22.049-17.5107-12.094 10.0337-28.567-8.6876-43.932-1.5654-14.722 6.5327-45.29-3.2089-50.725.4227z" fill="#fefdfd"/><path d="m722.634 44.163c8.649.7722 15.276-3.8611 21.03-10.5085 1.531 2.8645 5.482 5.4421 14.053 6.4856 23.367 3.7203 32.847-20.5162 45.202-1.4453 11.926 19.0396 9.172 37.3173 20 19.4831 11.132-18.5282 5.974-16.5611 13.829-14.3645 7.745 2.0663 28.284-9.7311 31.028-6.3395 2.519 3.3132 12.02-7.8684 14.993 3.5637 2.614 11.2912 19.583-16.9473 31.096-8.0927 5.629 4.4194 28.462 6.2613 47.485 6.4491 16.724-.0522 30.443-1.3618 25.285-7.6075 2.766.5585 5.467 1.4031 8.058 2.5202 20.067 8.4319 30.317 14.9227 30.317 14.8914.13.2087-27.071-12.6321-46.763-3.2976-19.39 9.4807-33.192 2.8228-53.935 4.5082-20.476 2.0088-7.426 6.9291-20.382 2.0871-13.635-4.3151-21.735 47.0901-29.627 4.3829-4.322-22.8799-6.381 3.9341-7.594 27.8158-1.311 24.8525-1.771 46.7775-5.095 36.4665-3.439-10.675-2.645-28.0503-2.781-43.3644-.172-15.0897-1.264-28.1132-9.36-24.7686-15.924 7.4196-7.499 53.268-13.588 18.7839-3.177-18.3352-3.282-10.1329-3.444 2.8071-.151 13.1383-.36 31.014-3.564 36.524-6.109 12.246 2.049 58.961-3.893 35.251-5.937-23.067-6.512-60.5255-20.278-75.4483-13.865-14.0096-9.59-27.8367-22.049-17.5108-12.094 10.0338-28.567-8.6875-43.932-1.5653-14.68 6.5431-45.238-3.188-50.694.4279.256-.334 7.014-9.8929 34.603-8.1345z" fill="#d7eef9"/><g fill="#9acae8"><path d="m978.241 45.8796c5.807-6.0004 14.581-8.6458 23.519-8.5362 15.41 6.8927 23.25 11.86 23.26 11.8339.12.2295-27.086-12.6113-46.779-3.2977z"/><path d="m688.01 52.287c.157-.1826 2.389-3.3185 9.293-5.6977 7.353 1.1218 17.094 2.541 25.488 3.4698 15.866 1.821 18.845-8.3484 38.151-2.5359 18.72 6.2352 29.204-13.5087 36.17-2.1653 6.705 11.479 10.866 22.3215 19.922 28.7915 9.131 7.3048 7.955 51.4936 8.598 20.1092.522-32.2874 1.468-47.6798 7.175-38.267 5.587 8.7711 6.434 6.4492 8.205-3.7307 1.72-10.4354 17.2-9.9711 17.581-2.901.22 3.715.7 20.9701 1.359 34.5936.658 13.8636 1.495 24.0955 2.446 19.3735.967-4.8577 1.494-21.3614 2.838-37.0094 1.322-15.3246 3.459-29.7986 7.133-23.2138 7.27 12.8096 5.676 27.6541 16.201 12.6739 10.766-15.2515 12.669-21.0066 26.22-15.2567 9.773 3.9864 31.99 10.5503 48.081 10.0807-12.37 1.6645-23.685-1.4244-38.58-.2139-20.476 2.0088-7.426 6.9291-20.382 2.0871-13.635-4.3151-21.735 47.0901-29.627 4.3829-4.322-22.8798-6.381 3.9342-7.594 27.8158-1.311 24.8524-1.771 46.7774-5.095 36.4664-3.439-10.675-2.645-28.0502-2.78-43.3643-.173-15.0897-1.265-28.1132-9.361-24.7686-15.924 7.4196-7.499 53.2679-13.588 18.7839-3.177-18.3352-3.282-10.1329-3.444 2.8071-.151 13.1383-.36 31.0139-3.564 36.5239-6.109 12.246 2.049 58.961-3.893 35.251-5.937-23.067-6.512-60.5254-20.278-75.4482-13.865-14.0096-9.59-27.8367-22.049-17.5107-12.094 10.0337-28.567-8.6876-43.932-1.5654-14.701 6.5535-45.237-3.1776-50.694.4383z"/></g></g><g clip-path="url(#b)"><path d="m481.164 44.6416c-1.949 0 13.671-4.1399 25.388-9.6617s17.569-19.3178 46.861-11.9573 42.302 9.656 57.273-1.3819 27.987-13.35605 52.064 4.1287c24.078 17.4847 57.279 4.1399 72.25 17.4847 0 0-32.546-4.6024-48.816 4.6024-16.27 9.2049-24.733 27.6033-33.196 30.8182-8.462 3.215-9.762 71.5403-15.62 64.8623-14.106-16.057-11.061-95.2067-28.637-82.7982-17.575 12.4085-17.569 24.3827-27.986 17.0279-10.418-7.3549-20.174-3.2206-18.875 7.3323 1.299 10.5528-5.853 33.588-9.107 18.861-3.254-14.7268 1.949-50.1418-12.993-46.0018-14.943 4.1399-27.365-2.2956-31.269-6.8755-3.904-4.5798-19.852-6.4411-27.337-6.4411z" fill="#fff"/><path d="m735 43.2542c-10.858-9.673-31.297-5.3187-50.901-8.8608-10.784 4.0892-19.959 10.6657-22.32 18.2913-4.559 14.721-23.434 24.817-32.201 2.9949-8.768-21.822-31.241-4.8336-42.935 4.8281s-27.01-4.3712-36.122-14.2585c-9.113-9.8874-15.615-.4625-30.264-4.1456-8.112-2.0361-9.83-6.1196-9.75-9.3571-1.252.8416-2.56 1.5955-3.915 2.2561-11.717 5.5217-27.338 9.6617-25.389 9.6617 7.486 0 23.434 1.8443 27.338 6.4411 3.903 4.5968 16.236 11.0154 31.201 6.8754 14.965-4.1399 9.762 31.2808 12.993 46.0022 3.232 14.721 10.412-8.2803 9.107-18.8613-1.305-10.5811 8.474-14.721 18.875-7.3323 10.4 7.3887 10.434-4.642 28.015-17.0505 17.58-12.4085 14.53 66.7411 28.636 82.8041 5.858 6.678 7.158-61.6419 15.621-64.8625 8.462-3.2206 16.948-21.619 33.195-30.8182 16.248-9.1992 48.816-4.6081 48.816-4.6081z" fill="#d7eef9"/><path d="m726.78 38.742c-6.779.079-14.27.1354-21.072.1354-18.547 0-35.466 15.8772-44.906 28.5226s-11.395 2.7581-18.553 22.7696c-7.158 20.0114-11.711-15.1778-19.846-30.1301-8.135-14.9522-22.784-.9193-28.642 6.6724-5.859 7.5918-12.689 9.4305-23.727 2.3012-11.039-7.1292-10.113 11.0492-13.344 21.1678-3.232 10.1181-3.254-30.3614-10.09-38.41s-19.208 3.6831-30.919-5.0762c-6.265-4.6419-14.547-6.3622-21.134-6.8246-8.067 2.9103-14.688 4.7885-13.406 4.7885 7.486 0 23.434 1.8444 27.337 6.4412 3.904 4.5967 16.299 11.021 31.264 6.881 14.965-4.1399 9.762 31.2808 12.993 46.0022 3.232 14.721 10.412-8.2803 9.107-18.8614-1.305-10.581 8.474-14.721 18.875-7.3323 10.4 7.3887 10.434-4.6419 28.015-17.0504 17.58-12.4085 14.53 66.7411 28.636 82.8041 5.858 6.678 7.158-61.6419 15.621-64.8625 8.462-3.2206 16.948-21.619 33.195-30.8182 16.248-9.1993 48.816-4.6081 48.816-4.6081-2.391-2.0656-5.192-3.6032-8.22-4.5122z" fill="#9acae8"/></g><g clip-path="url(#c)"><path d="m.639465 42.2465c.912685-2.9488 1.980045-5.8475 3.197725-8.6841.15372-.369.30746-.7318.46734-1.0886.92658-2.1297 2.01413-4.1857 3.25315-6.1502 13.48582-21.39042 35.69172-8.9916 68.43792-13.0999 14.8879-1.8451 49.9954 3.5486 64.7424 6.224 12.409 2.2633 25.994-2.7983 37.973-4.9755 18.731-3.4072 37.18 7.3126 56.028 5.6028 12.877-1.1685 24.813-8.0937 37.973-8.0937 12.736 0 23.787 6.673 37.352 4.9817 20.232-2.5339 41.75-5.3937 62.252-3.112 7.133.7872 13.4 4.1821 20.546 4.9817 12.846 1.4268 29.425-4.3913 41.084 4.3543 2.798 2.0973 4.563 5.4614 5.64 9.4529.57 2.182.957 4.4079 1.156 6.6545 1.371 14.5699-3.241 32.4547-3.241 32.4547-2.46 16.7655-10.583 12.8663-10.583 8.0937 0-.615-.941-23.2417-.941-24.6009 0-14.6867-14.021 23.1433-27.71 22.7558-15.866-.4797-23.485-14.1762-30.489-15.5785-5.775-1.1562-9.71 4.5573-14.944 5.6029-5.233 1.0455-16.363-4.6434-25.52-3.112-14.857 2.4601-25.902 19.7545-43.582 16.8085-12.594-2.0972-12.385-14.2869-18.676-17.4358-4.495-2.2449-12.883 9.256-18.676 8.0936-3.357-.6703-7.25-9.4467-9.962-8.0936-13.689 6.8452-7.435 35.9352-18.141 46.6372-1.74 1.74-1.181-30.7512-1.181-32.6886 0-12.0974-1.5-23.1678-16.782-28.2909-4.366-1.4576-9.691 5.8488-13.695 6.8513-12.299 3.0751-29.567-9.0347-40.464 1.8451-4.046 4.0407-4.606 48.9191-13.135 44.1831-1.033-.578-2.792-39.9334-4.262-42.8732-7.484-14.9757-12.784 13.3214-24.936 9.2684-2.46-.8241-1.273-11.7469-4.9195-9.3544-5.5345 3.604-10.6017 8.0813-12.299 14.6375-.8833-1.1847-1.6475-2.4537-2.2815-3.7886.615 1.1317-1.5804 18.2477-3.4868 19.6807-3.6282 2.7245-5.676 13.5676-8.3941 17.6446-.2521.376-.6949.898-1.2299.615-4.7843-2.392-4.5383-51.7414-11.5303-58.7342-3.9418-3.9422-14.1439 9.699-18.0488 8.7211-3.2715-.818-3.1301-5.6152-6.8506-6.8514-14.8019-4.9201-17.8335 18.998-19.9182 27.3931-.6149 2.4047-4.87658 20.8674-7.4717 13.0753-1.88174-5.6459-3.13009-12.5218-4.36001-18.6782-1.52506-7.2572-4.29233-24.6808-2.392125-31.3292z" fill="#9acae8"/><path d="m75.9956 13.2237c14.8879-1.8451 49.9954 3.5486 64.7424 6.224 12.409 2.2633 25.994-2.7983 37.973-4.9755 18.731-3.4072 37.18 7.3126 56.028 5.6028 12.877-1.1685 24.813-8.0937 37.973-8.0937 12.736 0 23.787 6.673 37.352 4.9817 20.232-2.5339 41.75-5.3937 62.252-3.112 7.133.7872 13.4 4.1821 20.546 4.9817 12.846 1.4268 29.425-4.3913 41.084 4.3543 2.798 2.0973 4.563 5.4614 5.64 9.4529.57 2.182.957 4.4079 1.156 6.6545.19 2.0173.264 4.1022.252 6.1872-2.128 4.5757-3.493 9.1515-5.646 13.4566-4.642-3.8254-2.73-19.3916-13.381-15.0188-4.095 1.6359-5.731 7.3803-9.279 9.5574-4.643 3.0013-9.016 1.3654-13.382-.818-4.919-2.7306-8.738-3.5548-14.205-3.8254-3.001-.2767-7.644-1.0947-10.374-.2767-2.46.8241-3.278 2.7368-5.191 4.6434-3.818 3.0074-7.914 3.0074-12.557 3.0074-6.285 0-8.468-3.278-13.929-5.1907-6.555-2.4601-14.758-.818-21.572-1.636-6.279-1.0948-9.556-1.6421-15.564.2706-15.294 4.6434-33.042 7.6447-48.612 1.6421-10.645-3.8254-20.478-9.8403-31.676-10.6522-4.643-.2767-9.286-1.9127-12.299 2.4601-1.095 1.6421-.818 3.5548-2.46 4.6434-1.913.818-5.732-.2706-7.644-.818-3.548-.8179-6.826-3.0012-10.104-4.3666-4.919-2.4601-8.738-2.4601-14.199-2.7368-5.19-.2707-10.104-1.3654-15.564-1.0886-5.461.2767-10.381 1.9127-15.842 2.7307-11.739 1.9127-22.937-1.0948-34.953-1.3654-4.373 0-10.375-1.6421-14.7592-.5474-4.6429 1.0948-7.9206 4.9202-12.0162 6.8268-6.0081 3.0074-17.4769 2.1833-24.0323.5473.2768 3.2781 2.7365 6.5562 3.0071 9.5575-2.4598-1.3653-2.4598-4.6434-4.3723-6.55-2.1831-2.7368-6.0019-4.1022-9.5563-5.7382-5.184-2.46-11.1922-1.3653-16.9296-1.9127-11.4689-1.3653-18.8421-3.0013-22.6671-15.0188-.5329-1.7219-.6922-3.5377-.4674-5.3261 13.7257-15.20946 34.9969-4.914 65.2279-8.7148z" fill="#d7eef9"/><path d="m29.5238 13.5007c12.2253-1.021 27.6052 2.1033 46.4719-.2583 14.888-1.8451 49.9953 3.5486 64.7423 6.224 12.41 2.2632 25.994-2.7984 37.973-4.9756 18.731-3.4072 37.18 7.3126 56.028 5.6029 12.877-1.1686 24.814-8.0937 37.973-8.0937 12.736 0 23.787 6.673 37.353 4.9817 20.231-2.5339 41.749-5.3938 62.251-3.112 7.134.7872 13.4 4.1821 20.546 4.9816 11.868 1.3162 26.922-3.5363 38.336 2.6077-5.805 5.2031-12.17 8.0568-22.065 8.5488-11.647.7257-18.202 8.7395-30.218 4.7357-11.291-3.6409-20.755-7.6509-33.134-6.5561-12.379 1.0947-24.758 1.0947-37.137 1.0947-14.568 0-28.767-1.8451-43.329-1.8451-11.654 0-20.755 6.1871-33.134 2.5462-25.828-7.6447-51.705.3629-78.283-2.1833-13.468-1.4576-26.216-4.7357-39.689-2.9152-12.379 1.8451-24.7582.7319-37.1371 1.4576-15.9888 1.0947-29.1241-6.1933-43.6616-11.6854-1.1315-.3137-2.4598-.7011-3.8865-1.1562z" fill="#fff"/></g></svg>